<?xml version="1.0" encoding="utf-8" ?>
<svg baseProfile="full" height="200mm" version="1.1" viewBox="0,0,200,200" width="200mm" xmlns="http://www.w3.org/2000/svg" xmlns:ev="http://www.w3.org/2001/xml-events" xmlns:xlink="http://www.w3.org/1999/xlink"><defs /><rect fill="#1a1a1a" height="200" width="200" x="0" y="0" /><rect fill="#1a1a1a" height="200" width="180" x="10" y="0" /><text alignment-baseline="middle" fill="#e1ed5e" style="dominant-baseline: central; font-size:9.0px; font-family:Arial;" text-anchor="middle" x="100.0" y="100.0">2024</text><line stroke="#e1ed5e" stroke-width="0.3" x1="100.0" x2="100.0" y1="15.0" y2="10.0" /><path d="M 100.0 14.0 a86.0,86.0 0 0,1 42.35913384403234,11.155469271406648" fill="none" id="id1" stroke="none" /><text fill="#e1ed5e" style="font-size:6.75px; font-family:Arial;" text-anchor="middle"><textPath startOffset="22.145653131862478" xlink:href="#id1">January</textPath></text><line stroke="#e1ed5e" stroke-width="0.3" x1="143.13028292997686" x2="145.6673583964461" y1="26.7553504044142" y2="22.446841604673864" /><path d="M 143.63769802327073 25.89364864446614 a86.0,86.0 0 0,1 29.32050498858742,28.57503671076993" fill="none" id="id2" stroke="none" /><text fill="#e1ed5e" style="font-size:6.75px; font-family:Arial;" text-anchor="middle"><textPath startOffset="20.669276256404974" xlink:href="#id2">February</textPath></text><line stroke="#e1ed5e" stroke-width="0.3" x1="172.87174338648825" x2="177.1583165268699" y1="56.24261187166439" y2="53.66864786411523" /><path d="M 173.72905801456457 55.72781907015455 a86.0,86.0 0 0,1 12.242430191666344,42.057860355516425" fill="none" id="id3" stroke="none" /><text fill="#e1ed5e" style="font-size:6.75px; font-family:Arial;" text-anchor="middle"><textPath startOffset="22.145653131862474" xlink:href="#id3">March</textPath></text><path d="M 120.65975698304385 96.23510406497455 l 5.43044599222847 -0.9896081574578136 a26.51987934467931,26.51987934467931 0 0,0 0.07777293378695241,0.44857361473025514 l -5.446633743507656 0.8962415098069658" fill="#ff0000" stroke="none" /><path d="M 120.86939407059847 97.66154086499901 l 14.954115151007647 -1.6756397939697167 a36.04770177365073,36.04770177365073 0 0,0 0.06362866958493502,0.6155496589583193 l -14.980676213074247 1.4186856127284662" fill="#ff8f0d" stroke="none" /><line stroke="#e1ed5e" stroke-width="0.3" x1="184.99686870605535" x2="189.99668451229388" y1="99.2704041080226" y2="99.22748670261217" /><path d="M 185.99683186730306 99.26182062694052 a86.0,86.0 0 0,1 -10.086455211305974,41.156179273409016" fill="none" id="id4" stroke="none" /><text fill="#e1ed5e" style="font-size:6.75px; font-family:Arial;" text-anchor="middle"><textPath startOffset="21.40746469413373" xlink:href="#id4">April</textPath></text><path d="M 120.99922638620191 99.81974689727618 l 11.957373197191302 -0.1026396677468416 a32.95781370812843,32.95781370812843 0 0,0 0.0,0.5657855409413355 l -11.957373197191302 -0.10263966774684015" fill="#ff6209" stroke="none" /><path d="M 120.9064616781168 101.97986365728391 l 6.00080798252452 0.5682827549616077 a27.027656404666473,27.027656404666473 0 0,0 -0.04770716951183625,0.4615235885716268 l -5.990168420531018 -0.671210865816166" fill="#ff0801" stroke="none" /><path d="M 120.86939407059847 102.33845913500097 l 12.64611168825716 1.4170231919339855 a33.725254243367914,33.725254243367914 0 0,0 -0.0694064347028946,0.5747848448127153 l -12.6199231672946 -1.6339017136701095" fill="#ff6e0a" stroke="none" /><path d="M 120.7213421655516 103.40968896794604 l 12.26760922756482 2.0186304300229807 a33.432582393583736,33.432582393583736 0 0,0 -0.09804531849594134,0.5654993425551156 l -12.231149091576645 -2.2289228054986845" fill="#ff6909" stroke="none" /><path d="M 120.05942366710727 106.21446072829308 l 6.314261138678583 1.956174241379082 a27.610333682202555,27.610333682202555 0 0,0 -0.1441460371777672,0.45153540840867445 l -6.2797503857235615 -2.06427868347914" fill="#ff1101" stroke="none" /><line stroke="#e1ed5e" stroke-width="0.3" x1="174.33088141563837" x2="178.70328620479359" y1="141.23008692659167" y2="143.65538615756765" /><path d="M 175.20536237346943 141.71514677278685 a86.0,86.0 0 0,1 -30.301960400862466,31.631185727798858" fill="none" id="id5" stroke="none" /><text fill="#e1ed5e" style="font-size:6.75px; font-family:Arial;" text-anchor="middle"><textPath startOffset="22.145653131862474" xlink:href="#id5">May</textPath></text><path d="M 116.35404254752997 113.17365903436017 l 9.621316266776892 7.750251327272302 a33.3545992383902,33.3545992383902 0 0,0 -0.3630142737597586,0.4428183886916369 l -9.486855173778507 -7.914271997662432" fill="#ff6809" stroke="none" /><line stroke="#e1ed5e" stroke-width="0.3" x1="143.1302829299769" x2="145.66735839644613" y1="173.24464959558577" y2="177.55315839532614" /><path d="M 143.63769802327073 174.10635135553383 a86.0,86.0 0 0,1 -40.68552437913181,11.842963189579606" fill="none" id="id6" stroke="none" /><text fill="#e1ed5e" style="font-size:6.75px; font-family:Arial;" text-anchor="middle"><textPath startOffset="21.407464694133747" xlink:href="#id6">June</textPath></text><path d="M 105.69591212413111 120.21278271476187 l 4.1189041170160445 14.616537637136314 a36.18580072380097,36.18580072380097 0 0,0 -0.5993378339908928,0.1633521917911847 l -3.867384882090457 -14.685090323071641" fill="#ff910d" stroke="none" /><path d="M 104.64783097203109 120.47920084513623 l 1.9962837587452156 8.7959945801044 a30.019682339121257,30.019682339121257 0 0,0 -0.5035266838568228,0.10974129716491875 l -1.844994658269257 -8.828967335403037" fill="#ff3605" stroke="none" /><line stroke="#e1ed5e" stroke-width="0.3" x1="101.45913802915013" x2="101.54496967792366" y1="184.9874750549273" y2="189.98673829345242" /><path d="M 101.47630435890484 185.9873277026323 a86.0,86.0 0 0,1 -42.54439059252881,-10.42667462771756" fill="none" id="id7" stroke="none" /><text fill="#e1ed5e" style="font-size:6.75px; font-family:Arial;" text-anchor="middle"><textPath startOffset="22.145653131862474" xlink:href="#id7">July</textPath></text><path d="M 96.41257539226777 120.69131181640829 l -5.426780481831746 31.300227708411935 a52.767187489553244,52.767187489553244 0 0,0 -0.8911756481306535,-0.1624018897121813 l 5.963290863513457 -31.202457644768387" fill="#94ff23" stroke="none" /><path d="M 94.6519064749342 120.30758222061772 l -7.598717159202813 28.853566744577652 a50.83737281245386,50.83737281245386 0 0,0 -0.84200875198992,-0.22949322960145402 l 8.092907312127428 -28.718873020832053" fill="#abff21" stroke="none" /><path d="M 94.30408787586889 120.21278271476187 l -13.369307160548455 47.442954665368624 a70.29069203544736,70.29069203544736 0 0,0 -1.1585913938494306,-0.3372490692576782 l 14.181758566779493 -47.206461901808424" fill="#3bff98" stroke="none" /><path d="M 92.25597844496254 119.51999308798841 l -11.010328343378662 27.753219904124435 a50.85747051033788,50.85747051033788 0 0,0 -0.8087440662888594,-0.32890917111651324 l 11.485126870857963 -27.560123476428632" fill="#abff21" stroke="none" /><path d="M 90.6110303473126 118.78422872680471 l -20.008289146628503 40.02998131480141 a65.75188307365895,65.75188307365895 0 0,0 -1.0052923702868266,-0.5133094472601817 l 20.69250873862891 -39.68061391586839" fill="#35ff61" stroke="none" /><line stroke="#e1ed5e" stroke-width="0.3" x1="58.13341422392154" x2="55.67067388415222" y1="173.97424548756322" y2="178.32567169271397" /><path d="M 57.64086615596768 174.84453072859336 a86.0,86.0 0 0,1 -31.369924170532247,-30.572349798747897" fill="none" id="id8" stroke="none" /><text fill="#e1ed5e" style="font-size:6.75px; font-family:Arial;" text-anchor="middle"><textPath startOffset="22.145653131862474" xlink:href="#id8">August</textPath></text><path d="M 86.96720088162412 116.46651593811092 l -18.519225918268337 23.398436972351977 a50.84038507393947,50.84038507393947 0 0,0 -0.6796856640166834,-0.5475066585081635 l 18.918162352640284 -23.0770820200504" fill="#abff21" stroke="none" /><path d="M 85.60350026404147 115.28858382429668 l -10.286440259698564 10.923843090221183 a36.00470596433401,36.00470596433401 0 0,0 -0.4463340762307314,-0.42757794854376885 l 10.472446821794609 -10.745653011371832" fill="#ff8f0d" stroke="none" /><path d="M 84.1078160697243 113.72728997021213 l -45.14777362305367 38.997571557957684 a80.6584616842953,80.6584616842953 0 0,0 -0.896097981433304,-1.0556011689221056 l 45.81056616799409 -38.21680360658602" fill="#49f3ff" stroke="none" /><path d="M 82.98947788004972 112.3143062007846 l -12.172229048436366 8.811755135530698 a36.02698201822807,36.02698201822807 0 0,0 -0.358356789959069,-0.5040737033277429 l 12.321700936925396 -8.601504205493452" fill="#ff8f0d" stroke="none" /><path d="M 81.99639281039703 110.81064883170644 l -25.60819589149085 15.37698584960965 a50.87024256071692,50.87024256071692 0 0,0 -0.44311927316336247,-0.7525134009576187 l 25.868388874783985 -14.935121280358471" fill="#abff21" stroke="none" /><line stroke="#e1ed5e" stroke-width="0.3" x1="26.387840678322732" x2="22.057713659400548" y1="142.50000000000003" y2="145.00000000000006" /><path d="M 25.521815274538298 143.00000000000003 a86.0,86.0 0 0,1 -11.493303480769221,-40.785679425670985" fill="none" id="id9" stroke="none" /><text fill="#e1ed5e" style="font-size:6.75px; font-family:Arial;" text-anchor="middle"><textPath startOffset="21.40746469413373" xlink:href="#id9">September</textPath></text><path d="M 81.81346652052679 110.50000000000001 l -13.872603857998401 8.009351571776428 a37.01870314355284,37.01870314355284 0 0,0 -0.3130136451653906,-0.5530651186190509 l 14.00805086818517 -7.770029683058255" fill="#ff9d0e" stroke="none" /><path d="M 81.1358732173502 109.22738970284198 l -26.895206171097982 13.155793074252285 a50.94039088586539,50.94039088586539 0 0,0 -0.37749435378430996,-0.7888180121904815 l 27.117079782842204 -12.6921625599967" fill="#aaff21" stroke="none" /><path d="M 80.68587082218212 108.24405325689762 l -13.726967179507579 5.859226033007806 a35.92515184690443,35.92515184690443 0 0,0 -0.2372328615365709,-0.5692725060969193 l 13.825525885580635 -5.622721017469605" fill="#ff8e0d" stroke="none" /><path d="M 80.5471966667186 107.91128576633889 l -27.74004530866629 11.28163493189587 a50.94637541445428,50.94637541445428 0 0,0 -0.322518031108134,-0.8129561227637835 l 27.92962201474055 -10.80377779191852" fill="#aaff21" stroke="none" /><path d="M 80.41425534168474 107.57618678355246 l -14.055550861242526 5.436989020751124 a36.07047974102828,36.07047974102828 0 0,0 -0.21843134491199082,-0.5794150935839678 l 14.146812889968952 -5.194905646973011" fill="#ff900d" stroke="none" /><path d="M 80.05021161711548 106.5578916946017 l -28.41886874111485 9.3418466256626 a50.914915993566126,50.914915993566126 0 0,0 -0.2658129183872293,-0.8326551809139062 l 28.57504637527933 -8.852622411057302" fill="#aaff21" stroke="none" /><path d="M 79.22317932658666 103.0534771498775 l -44.26229562128941 6.5050332004683025 a65.73774995018871,65.73774995018871 0 0,0 -0.15450087758876746,-1.117891385706268 l 44.367441015433386 -5.744253506561949" fill="#35ff61" stroke="none" /><line stroke="#e1ed5e" stroke-width="0.3" x1="15.003131293944662" x2="10.003315487706104" y1="100.72959589197737" y2="100.7725132973878" /><path d="M 14.003168132696942 100.73817937305945 a86.0,86.0 0 0,1 10.791469493833604,-42.45332614584628" fill="none" id="id10" stroke="none" /><text fill="#e1ed5e" style="font-size:6.75px; font-family:Arial;" text-anchor="middle"><textPath startOffset="22.145653131862435" xlink:href="#id10">October</textPath></text><path d="M 79.22317932658666 96.9465228501225 l -14.817972930234276 -2.1777317358219372 a35.977143828993626,35.977143828993626 0 0,0 0.09504563127426204,-0.6102611339161683 l 14.778405806821747 2.4317810516695553" fill="#ff8e0d" stroke="none" /><path d="M 79.48165901384962 95.52812308129327 l -12.510258509590834 -2.726552615236064 a33.80393131582798,33.80393131582798 0 0,0 0.12843745503113774,-0.5659191251680515 l 12.461610193002034 2.940906074343124" fill="#ff6f0a" stroke="none" /><path d="M 79.83685265289637 94.1308016681162 l -28.666258098653515 -8.344329945996048 a50.8560244444277,50.8560244444277 0 0,0 0.2511892383505432,-0.836127279596755 l 28.51879254029934 8.835194829183527" fill="#abff21" stroke="none" /><path d="M 80.41425534168474 92.42381321644754 l -27.93416802597225 -10.805536286722376 a50.951249685896656,50.951249685896656 0 0,0 0.32254888787498004,-0.813033901973368 l 27.74456046313114 11.283471205909327" fill="#aaff21" stroke="none" /><path d="M 80.68587082218212 91.75594674310238 l -27.50393971525544 -11.739796379092294 a50.904673863510936,50.904673863510936 0 0,0 0.34994810251747194,-0.8007497429907967 l 27.29835773072099 12.210208191858957" fill="#abff21" stroke="none" /><line stroke="#e1ed5e" stroke-width="0.3" x1="26.387840678322718" x2="22.05771365940052" y1="57.49999999999999" y2="54.99999999999999" /><path d="M 25.521815274538284 56.99999999999999 a86.0,86.0 0 0,1 29.574782752854787,-30.34633250058573" fill="none" id="id11" stroke="none" /><text fill="#e1ed5e" style="font-size:6.75px; font-family:Arial;" text-anchor="middle"><textPath startOffset="21.40746469413373" xlink:href="#id11">November</textPath></text><path d="M 82.37810715431573 88.57770195909679 l -12.59560542731936 -8.16431926220087 a36.01017605146126,36.01017605146126 0 0,0 0.3406829491232092,-0.5158374067063051 l 12.453598039275422 8.379336547246236" fill="#ff8f0d" stroke="none" /><path d="M 84.10781606972428 86.27271002978789 l -11.316225490606232 -9.774686056956714 a35.953308893563,35.953308893563 0 0,0 0.40745189194033954,-0.4636054581159356 l 11.1467625347073 9.967503792883951" fill="#ff8e0d" stroke="none" /><path d="M 84.58840730492382 85.73525988315684 l -14.34835170582227 -13.280620130456038 a40.55121652796692,40.55121652796692 0 0,0 0.47723793332306225,-0.506810147019248 l 14.118257938762934 13.524971737419797" fill="#ffce13" stroke="none" /><path d="M 85.60350026404147 84.71141617570332 l -20.50117101896243 -21.7715331759967 a50.90481014790547,50.90481014790547 0 0,0 0.6413284410500545,-0.5936040305582438 l 20.124412806598425 22.12025495268731" fill="#abff21" stroke="none" /><path d="M 86.13680546590413 84.22622945171909 l -19.730351185865892 -22.44951779890377 a50.887582828340214,50.887582828340214 0 0,0 0.6611036581351862,-0.5710455941993526 l 19.342068047967857 22.78490752556783" fill="#abff21" stroke="none" /><path d="M 86.68645165197937 83.75963576809568 l -18.95821080719163 -23.125934622815382 a50.9035551262496,50.9035551262496 0 0,0 0.6805301851368508,-0.5481869449420534 l 18.558429851699533 23.447969861550835" fill="#abff21" stroke="none" /><path d="M 87.83215693770416 82.88440491214696 l -17.333234592370882 -24.381365154607085 a50.9147453312986,50.9147453312986 0 0,0 0.7166975548366417,-0.5003105548131042 l 16.912141946360478 24.675320525225313" fill="#aaff21" stroke="none" /><path d="M 89.03521579738668 82.08984904055464 l -7.8290273877930465 -12.788127863709905 a35.99432839767781,35.99432839767781 0 0,0 0.5297460884493689,-0.3180973052724396 l 7.608348542786244 12.920639169518267" fill="#ff8f0d" stroke="none" /><line stroke="#e1ed5e" stroke-width="0.3" x1="56.869717070023135" x2="54.33264160355391" y1="26.7553504044142" y2="22.446841604673864" /><path d="M 56.362301976729285 25.89364864446614 a86.0,86.0 0 0,1 42.16139366436587,-11.88097634709845" fill="none" id="id12" stroke="none" /><text fill="#e1ed5e" style="font-size:6.75px; font-family:Arial;" text-anchor="middle"><textPath startOffset="22.145653131862474" xlink:href="#id12">December</textPath></text><path d="M 89.65649057296885 81.72400993836675 l -14.765394485044446 -26.089037262299968 a50.977570608250716,50.977570608250716 0 0,0 0.7652845432349372,-0.424490435741226 l 14.315365753653406 26.338660613474342" fill="#aaff21" stroke="none" /><path d="M 90.61103034731259 81.2157712731953 l -13.409672253108036 -26.828327289541235 a50.99297342863022,50.99297342863022 0 0,0 0.786359609738779,-0.3846478901057961 l 12.947152394107205 27.054568929744246" fill="#a9ff21" stroke="none" /><path d="M 91.26138138417902 80.90454125486306 l -6.27969152176641 -13.722259278941088 a36.090888818324444,36.090888818324444 0 0,0 0.5655727518637423,-0.2529734981136739 l 6.043205367047049 13.828036527964608" fill="#ff900d" stroke="none" /><path d="M 92.25597844496254 80.48000691201159 l -16.542340514170945 -41.697504352337134 a65.85901134554746,65.85901134554746 0 0,0 1.054458399006019,-0.40788716108190276 l 15.824109852671397 41.97533140155708" fill="#35ff62" stroke="none" /><path d="M 93.27111125876988 80.10723608172694 l -20.186666223690388 -59.67829175481917 a84.0,84.0 0 0,0 1.3699090494089559,-0.4503163143918858 l 19.15923443663367 60.01602899061309" fill="#4dd2ff" stroke="none" /><path d="M 94.30408787586887 79.78721728523814 l -9.737771567399978 -34.555915984723235 a56.90174821150238,56.90174821150238 0 0,0 0.9424517308234509,-0.2568694101326194 l 9.143138435641848 34.717985889" fill="#65ff29" stroke="none" /><path d="M 95.00130118170881 79.60360301121753 l -6.55367871092757 -26.741245588928408 a48.532615573051686,48.532615573051686 0 0,0 0.8108825856897973,-0.19136608230398136 l 6.093663971497866 26.84980781487862" fill="#c8ff1d" stroke="none" /><path d="M 97.48249496171623 79.15144685158666 l -3.592916907274742 -29.754506132077378 a50.970647091219284,50.970647091219284 0 0,0 0.8695691869028342,-0.09743704114021791 l 3.081611818771109 29.811798933724567" fill="#aaff21" stroke="none" /></svg>