<?xml version="1.0" encoding="utf-8" ?>
<svg baseProfile="full" height="200mm" version="1.1" viewBox="0,0,200,200" width="200mm" xmlns="http://www.w3.org/2000/svg" xmlns:ev="http://www.w3.org/2001/xml-events" xmlns:xlink="http://www.w3.org/1999/xlink"><defs /><rect fill="#1a1a1a" height="200" width="200" x="0" y="0" /><rect fill="#1a1a1a" height="200" width="180" x="10" y="0" /><text alignment-baseline="middle" fill="#e1ed5e" style="dominant-baseline: central; font-size:9.0px; font-family:Arial;" text-anchor="middle" x="100.0" y="100.0">2026</text><line stroke="#e1ed5e" stroke-width="0.3" x1="100.0" x2="100.0" y1="15.0" y2="10.0" /><path d="M 100.0 14.0 a86.0,86.0 0 0,1 42.46469731375804,11.215312516191453" fill="none" id="id25" stroke="none" /><text fill="#e1ed5e" style="font-size:6.75px; font-family:Arial;" text-anchor="middle"><textPath startOffset="22.20632615414155" xlink:href="#id25">January</textPath></text><path d="M 100.0 79.0 l 0.0 -42.28582524875378 a63.28582524875378,63.28582524875378 0 0,0 1.089361449622714,0.009376477920586513 l -0.7278809703501856 42.27956014744176" fill="#45ff2d" stroke="none" /><path d="M 102.52436894288641 79.15227682838746 l 2.518767677693796 -20.801464629858817 a41.95340357463346,41.95340357463346 0 0,0 0.7161751081177322,0.09298008339691156 l -2.876457514319375 20.75502622329777" fill="#ff7e0b" stroke="none" /><path d="M 103.2404852339499 79.25152402106235 l 4.8501379847050305 -31.054908201979817 a52.43137225614039,52.43137225614039 0 0,0 0.8905113888488452,0.14694200935607357 l -5.383978579692751 30.96681992968412" fill="#daff1c" stroke="none" /><path d="M 104.307194497241 79.44645832069477 l 4.306317939497508 -20.549358825216142 a41.99572628711678,41.99572628711678 0 0,0 0.7062426806072495,0.154357295572659 l -4.659403344258286 20.472188031547613" fill="#ff7f0b" stroke="none" /><path d="M 104.66035177308747 79.52364482259891 l 4.834544795692175 -21.241713325014885 a42.78493076334348,42.78493076334348 0 0,0 0.7167011998806035,0.16962001832467857 l -5.199469682535303 21.155347394549338" fill="#ff8c0c" stroke="none" /><path d="M 105.71112130821622 79.79150937346287 l 5.99652531814705 -21.21837711785817 a43.0494408864902,43.0494408864902 0 0,0 0.7113608147213886,0.20766572861509278 l -6.360876350591865 21.112013060324376" fill="#ff900d" stroke="none" /><path d="M 106.74666289553966 80.11325718540242 l 7.929325476922183 -23.372807993273028 a45.68121463804759,45.68121463804759 0 0,0 0.7424676491530405,0.2590323840550464 l -8.330475130138497 23.232854756045775" fill="#ffbc11" stroke="none" /><path d="M 108.09893153111575 80.62456947434976 l 8.542083497512559 -20.43560248836392 a43.14906407821563,43.14906407821563 0 0,0 0.6828159442541673,0.2923461526196336 l -8.892583199557041 20.285536807781494" fill="#ff920d" stroke="none" /><path d="M 109.08828744355905 81.06846463323043 l 9.089181324625578 -18.93339738325283 a42.00206546090378,42.00206546090378 0 0,0 0.6490893850939051,0.3185053423013299 l -9.413741976729915 18.77413688081667" fill="#ff7f0b" stroke="none" /><path d="M 109.41281617654863 81.2277094730956 l 9.397077573466694 -18.74090251039583 a41.96488716463581,41.96488716463581 0 0,0 0.6429410635591817,0.32933938472140417 l -9.71827912461463 18.576370600361926" fill="#ff7e0b" stroke="none" /><path d="M 110.36928655335952 81.73862282372117 l 7.908814546957098 -13.928233607589151 a37.017023411537366,37.017023411537366 0 0,0 0.5513831370255394,0.3193967022840846 l -8.147394416447966 13.790032747915015" fill="#ff2803" stroke="none" /><line stroke="#e1ed5e" stroke-width="0.3" x1="143.23703022742887" x2="145.7803849466894" y1="26.81831364943548" y2="22.513508569990506" /><path d="M 143.74570117128098 25.957352633546492 a86.0,86.0 0 0,1 28.547481713284135,27.462654790039103" fill="none" id="id26" stroke="none" /><text fill="#e1ed5e" style="font-size:6.75px; font-family:Arial;" text-anchor="middle"><textPath startOffset="19.985693538727396" xlink:href="#id26">February</textPath></text><path d="M 110.99172775467656 82.1063720568725 l 11.175087929459625 -18.192123213423756 a42.350314687225236,42.350314687225236 0 0,0 0.6178726338654027,0.3869117866427708 l -11.48657971569729 17.99706708545804" fill="#ff850c" stroke="none" /><path d="M 111.2981086023043 82.29822771554956 l 17.344763881013673 -27.175615968733414 a53.239028170343396,53.239028170343396 0 0,0 0.768246716705412,0.49968903471789894 l -17.809977623503364 26.873028009855986" fill="#ceff1d" stroke="none" /><path d="M 112.19680574252982 82.90503203632743 l 12.137854706632718 -17.012342554089127 a41.898500330334656,41.898500330334656 0 0,0 0.5834958409218429,0.42393454334396713 l -12.428895863908348 16.800888775928485" fill="#ff7d0b" stroke="none" /><path d="M 112.48926042617603 83.11751280151076 l 37.46778127852809 -50.647461595467746 a84.0,84.0 0 0,0 1.1550153849664682,0.8699336419766106 l -38.33404281725294 49.995011363985284" fill="#4dd2ff" stroke="none" /><path d="M 113.6212207817346 84.01681056812373 l 13.540986499440145 -15.889042236599712 a41.87630184142943,41.87630184142943 0 0,0 0.5446037010778241,0.4722749629607034 l -13.812483999164733 15.653602280219339" fill="#ff7c0b" stroke="none" /><path d="M 113.89432698308785 84.25364557470407 l 13.838034912175644 -15.682558971151503 a41.914919701357604,41.914919701357604 0 0,0 0.5368882312124553,0.4820235550111031 l -14.105934130984089 15.442036407371102" fill="#ff7d0b" stroke="none" /><path d="M 114.68862486808459 84.99185889309783 l 17.31962024808539 -17.696367558954584 a45.76147552791452,45.76147552791452 0 0,0 0.5582119886557559,0.5558148489772823 l -17.62166803690847 17.395616859327184" fill="#ffbd11" stroke="none" /><path d="M 114.94478906791727 85.2469230424477 l 14.870477510888664 -14.679718670948438 a41.89557947653134,41.89557947653134 0 0,0 0.502219740338549,0.5175815887803823 l -15.120961514930322 14.421572886617941" fill="#ff7d0b" stroke="none" /><path d="M 116.15771136456269 86.58626213691792 l 10.654688665090053 -8.8452626452854 a34.84778183732253,34.84778183732253 0 0,0 0.37917955702954903,0.4648293022227305 l -10.80536671419601 8.66054917345457" fill="#ff0000" stroke="none" /><path d="M 116.60985879189232 87.15038557335679 l 26.97699616285563 -20.869773995365552 a55.10726885267074,55.10726885267074 0 0,0 0.5739659793627335,0.7552719493055032 l -27.332238082442476 20.402317270179015" fill="#b3ff20" stroke="none" /><line stroke="#e1ed5e" stroke-width="0.3" x1="172.23445277983987" x2="176.4835382374775" y1="55.19839476539836" y2="52.563006222186495" /><path d="M 173.08426987136738 54.67131705675599 a86.0,86.0 0 0,1 12.851231095245387,41.99856678651699" fill="none" id="id27" stroke="none" /><text fill="#e1ed5e" style="font-size:6.75px; font-family:Arial;" text-anchor="middle"><textPath startOffset="22.20632615414155" xlink:href="#id27">March</textPath></text><line stroke="#e1ed5e" stroke-width="0.3" x1="184.98032266829074" x2="189.97916517819016" y1="98.17113171792111" y2="98.06355123074" /><path d="M 185.9800911702706 98.14961562048488 a86.0,86.0 0 0,1 -9.607161424134198,41.387399972396054" fill="none" id="id28" stroke="none" /><text fill="#e1ed5e" style="font-size:6.75px; font-family:Arial;" text-anchor="middle"><textPath startOffset="21.466115282336823" xlink:href="#id28">April</textPath></text><line stroke="#e1ed5e" stroke-width="0.3" x1="174.80103733775053" x2="179.2010983576182" y1="140.37084112569926" y2="142.7455964860345" /><path d="M 175.68104954172406 140.8457921977663 a86.0,86.0 0 0,1 -30.038265399797805,32.042727171017184" fill="none" id="id29" stroke="none" /><text fill="#e1ed5e" style="font-size:6.75px; font-family:Arial;" text-anchor="middle"><textPath startOffset="22.206326154141568" xlink:href="#id29">May</textPath></text><line stroke="#e1ed5e" stroke-width="0.3" x1="143.8653032363475" x2="146.44561519142675" y1="172.8068346515853" y2="177.08958963109032" /><path d="M 144.38136562736335 173.6633856474863 a86.0,86.0 0 0,1 -40.68145358897372,12.25698825130547" fill="none" id="id30" stroke="none" /><text fill="#e1ed5e" style="font-size:6.75px; font-family:Arial;" text-anchor="middle"><textPath startOffset="21.466115282336833" xlink:href="#id30">June</textPath></text><line stroke="#e1ed5e" stroke-width="0.3" x1="102.19456741930631" x2="102.32365962044197" y1="184.97166512339345" y2="189.96999836594603" /><path d="M 102.22038585953345 185.97133177190398 a86.0,86.0 0 0,1 -42.740103519485714,-10.115201625700543" fill="none" id="id31" stroke="none" /><text fill="#e1ed5e" style="font-size:6.75px; font-family:Arial;" text-anchor="middle"><textPath startOffset="22.20632615414155" xlink:href="#id31">July</textPath></text><line stroke="#e1ed5e" stroke-width="0.3" x1="58.666819895761336" x2="56.23545636021788" y1="174.27360380694188" y2="178.64263932499728" /><path d="M 58.180547188652646 175.14741091055294 a86.0,86.0 0 0,1 -31.652253787137756,-30.449443065178592" fill="none" id="id32" stroke="none" /><text fill="#e1ed5e" style="font-size:6.75px; font-family:Arial;" text-anchor="middle"><textPath startOffset="22.20632615414155" xlink:href="#id32">August</textPath></text><line stroke="#e1ed5e" stroke-width="0.3" x1="26.63291911575756" x2="22.317208475507996" y1="142.92168965132927" y2="145.44649492493687" /><path d="M 25.769776987707644 143.4266507060508 a86.0,86.0 0 0,1 -11.730757126820373,-40.83630448921669" fill="none" id="id33" stroke="none" /><text fill="#e1ed5e" style="font-size:6.75px; font-family:Arial;" text-anchor="middle"><textPath startOffset="21.46611528233685" xlink:href="#id33">September</textPath></text><line stroke="#e1ed5e" stroke-width="0.3" x1="15.007084014347285" x2="10.007500721073583" y1="101.09737516637583" y2="101.16192664675087" /><path d="M 14.007167355692545 101.11028546245083 a86.0,86.0 0 0,1 10.666146001902534,-42.60595125391555" fill="none" id="id34" stroke="none" /><text fill="#e1ed5e" style="font-size:6.75px; font-family:Arial;" text-anchor="middle"><textPath startOffset="22.20632615414155" xlink:href="#id34">October</textPath></text><line stroke="#e1ed5e" stroke-width="0.3" x1="26.266209847984243" x2="21.928928074336255" y1="57.711370442889674" y2="55.22380399835377" /><path d="M 25.398753493254645 57.213857153982495 a86.0,86.0 0 0,1 29.58750427330803,-30.492523968695096" fill="none" id="id35" stroke="none" /><text fill="#e1ed5e" style="font-size:6.75px; font-family:Arial;" text-anchor="middle"><textPath startOffset="21.46611528233685" xlink:href="#id35">November</textPath></text><line stroke="#e1ed5e" stroke-width="0.3" x1="56.762969772571076" x2="54.21961505331055" y1="26.818313649435495" y2="22.513508569990535" /><path d="M 56.25429882871897 25.957352633546506 a86.0,86.0 0 0,1 42.265352541879196,-11.944610805530505" fill="none" id="id36" stroke="none" /><text fill="#e1ed5e" style="font-size:6.75px; font-family:Arial;" text-anchor="middle"><textPath startOffset="22.20632615414155" xlink:href="#id36">December</textPath></text></svg>