<?xml version="1.0" encoding="utf-8" ?>
<svg baseProfile="full" height="200mm" version="1.1" viewBox="0,0,200,200" width="200mm" xmlns="http://www.w3.org/2000/svg" xmlns:ev="http://www.w3.org/2001/xml-events" xmlns:xlink="http://www.w3.org/1999/xlink"><defs /><rect fill="#1a1a1a" height="200" width="200" x="0" y="0" /><rect fill="#1a1a1a" height="200" width="180" x="10" y="0" /><text alignment-baseline="middle" fill="#e1ed5e" style="dominant-baseline: central; font-size:9.0px; font-family:Arial;" text-anchor="middle" x="100.0" y="100.0">2026</text><line stroke="#e1ed5e" stroke-width="0.3" x1="100.0" x2="100.0" y1="15.0" y2="10.0" /><path d="M 100.0 14.0 a86.0,86.0 0 0,1 42.46469731375804,11.215312516191453" fill="none" id="id25" stroke="none" /><text fill="#e1ed5e" style="font-size:6.75px; font-family:Arial;" text-anchor="middle"><textPath startOffset="22.20632615414155" xlink:href="#id25">January</textPath></text><path d="M 100.0 79.0 l 0.0 -63.0 a84.0,84.0 0 0,0 1.4459219170901134,0.012445506434235476 l -1.084441437817585 62.990665870174325" fill="#4dd2ff" stroke="none" /><path d="M 102.52436894288641 79.15227682838746 l 3.7526136184225414 -30.991289964708148 a52.217657866114656,52.217657866114656 0 0,0 0.8913933931818342,0.11572844559668492 l -4.285521740112221 30.922103195947326" fill="#ffa10e" stroke="none" /><path d="M 103.2404852339499 79.25152402106235 l 7.226031211142607 -46.26749519999939 a67.82837429536043,67.82837429536043 0 0,0 1.1520190526778913,0.1900930145719935 l -8.021379469959374 46.13625592248777" fill="#40ff2d" stroke="none" /><path d="M 104.307194497241 79.44645832069477 l 6.415814959088178 -30.615687369771056 a52.280712822965185,52.280712822965185 0 0,0 0.8792054342795288,0.19216025427900227 l -6.941863117521234 30.500713617396183" fill="#ffa30f" stroke="none" /><path d="M 104.66035177308747 79.52364482259891 l 7.202799527664019 -31.647199306235056 a53.45651775782919,53.45651775782919 0 0,0 0.8954636535557876,0.2119273155263584 l -7.74648686818233 31.518526078567827" fill="#ffbb11" stroke="none" /><path d="M 105.71112130821622 79.79150937346287 l 8.933988938867827 -31.6124316023479 a53.850601062582356,53.850601062582356 0 0,0 0.8898421595328232,0.2597693274462778 l -9.476821316124077 31.45396394598292" fill="#ffc312" stroke="none" /><path d="M 106.74666289553966 80.11325718540242 l 11.81359242978993 -34.82223404448272 a57.77157801816399,57.77157801816399 0 0,0 0.9389752014886651,0.3275900105380105 l -12.41124963534187 34.6137231807725" fill="#eeff19" stroke="none" /><path d="M 108.09893153111575 80.62456947434976 l 12.72651667970347 -30.446206245079 a53.99902576617465,53.99902576617465 0 0,0 0.8545120631237667,0.3658574702647976 l -13.248712500617552 30.22262924685141" fill="#ffc612" stroke="none" /><path d="M 109.08828744355905 81.06846463323043 l 13.541616371038831 -28.20812951214856 a52.290157310479174,52.290157310479174 0 0,0 0.8080789761807149,0.3965208441634143 l -14.025166614229978 27.97085350785031" fill="#ffa30f" stroke="none" /><path d="M 109.41281617654863 81.2277094730956 l 14.000338970465032 -27.921338916986926 a52.234766818485625,52.234766818485625 0 0,0 0.8002851622426007,0.4099371433450003 l -14.478884620296387 27.676209248329425" fill="#ffa20f" stroke="none" /><path d="M 110.36928655335952 81.73862282372117 l 11.783033996078428 -20.751131427994945 a44.86313780068873,44.86313780068873 0 0,0 0.6682540998054134,0.38709590742486266 l -12.138484828349169 20.545231363180033" fill="#ff0000" stroke="none" /><line stroke="#e1ed5e" stroke-width="0.3" x1="143.23703022742887" x2="145.7803849466894" y1="26.81831364943548" y2="22.513508569990506" /><path d="M 143.74570117128098 25.957352633546492 a86.0,86.0 0 0,1 28.547481713284135,27.462654790039103" fill="none" id="id26" stroke="none" /><text fill="#e1ed5e" style="font-size:6.75px; font-family:Arial;" text-anchor="middle"><textPath startOffset="19.985693538727396" xlink:href="#id26">February</textPath></text><path d="M 110.99172775467656 82.1063720568725 l 16.649327177946116 -27.103734069361074 a52.80900023548271,52.80900023548271 0 0,0 0.7704602978343116,0.4824621678216824 l -17.113406628152692 26.813127560216447" fill="#ffae10" stroke="none" /><path d="M 111.2981086023043 82.29822771554956 l 25.841286484909393 -40.487889167556496 a69.03166930723415,69.03166930723415 0 0,0 0.9961367650117707,0.6479150613104543 l -26.534390275705444 40.03707518208651" fill="#30ff31" stroke="none" /><line stroke="#e1ed5e" stroke-width="0.3" x1="172.23445277983987" x2="176.4835382374775" y1="55.19839476539836" y2="52.563006222186495" /><path d="M 173.08426987136738 54.67131705675599 a86.0,86.0 0 0,1 12.851231095245387,41.99856678651699" fill="none" id="id27" stroke="none" /><text fill="#e1ed5e" style="font-size:6.75px; font-family:Arial;" text-anchor="middle"><textPath startOffset="22.20632615414155" xlink:href="#id27">March</textPath></text><line stroke="#e1ed5e" stroke-width="0.3" x1="184.98032266829074" x2="189.97916517819016" y1="98.17113171792111" y2="98.06355123074" /><path d="M 185.9800911702706 98.14961562048488 a86.0,86.0 0 0,1 -9.607161424134198,41.387399972396054" fill="none" id="id28" stroke="none" /><text fill="#e1ed5e" style="font-size:6.75px; font-family:Arial;" text-anchor="middle"><textPath startOffset="21.466115282336823" xlink:href="#id28">April</textPath></text><line stroke="#e1ed5e" stroke-width="0.3" x1="174.80103733775053" x2="179.2010983576182" y1="140.37084112569926" y2="142.7455964860345" /><path d="M 175.68104954172406 140.8457921977663 a86.0,86.0 0 0,1 -30.038265399797805,32.042727171017184" fill="none" id="id29" stroke="none" /><text fill="#e1ed5e" style="font-size:6.75px; font-family:Arial;" text-anchor="middle"><textPath startOffset="22.206326154141568" xlink:href="#id29">May</textPath></text><line stroke="#e1ed5e" stroke-width="0.3" x1="143.8653032363475" x2="146.44561519142675" y1="172.8068346515853" y2="177.08958963109032" /><path d="M 144.38136562736335 173.6633856474863 a86.0,86.0 0 0,1 -40.68145358897372,12.25698825130547" fill="none" id="id30" stroke="none" /><text fill="#e1ed5e" style="font-size:6.75px; font-family:Arial;" text-anchor="middle"><textPath startOffset="21.466115282336833" xlink:href="#id30">June</textPath></text><line stroke="#e1ed5e" stroke-width="0.3" x1="102.19456741930631" x2="102.32365962044197" y1="184.97166512339345" y2="189.96999836594603" /><path d="M 102.22038585953345 185.97133177190398 a86.0,86.0 0 0,1 -42.740103519485714,-10.115201625700543" fill="none" id="id31" stroke="none" /><text fill="#e1ed5e" style="font-size:6.75px; font-family:Arial;" text-anchor="middle"><textPath startOffset="22.20632615414155" xlink:href="#id31">July</textPath></text><line stroke="#e1ed5e" stroke-width="0.3" x1="58.666819895761336" x2="56.23545636021788" y1="174.27360380694188" y2="178.64263932499728" /><path d="M 58.180547188652646 175.14741091055294 a86.0,86.0 0 0,1 -31.652253787137756,-30.449443065178592" fill="none" id="id32" stroke="none" /><text fill="#e1ed5e" style="font-size:6.75px; font-family:Arial;" text-anchor="middle"><textPath startOffset="22.20632615414155" xlink:href="#id32">August</textPath></text><line stroke="#e1ed5e" stroke-width="0.3" x1="26.63291911575756" x2="22.317208475507996" y1="142.92168965132927" y2="145.44649492493687" /><path d="M 25.769776987707644 143.4266507060508 a86.0,86.0 0 0,1 -11.730757126820373,-40.83630448921669" fill="none" id="id33" stroke="none" /><text fill="#e1ed5e" style="font-size:6.75px; font-family:Arial;" text-anchor="middle"><textPath startOffset="21.46611528233685" xlink:href="#id33">September</textPath></text><line stroke="#e1ed5e" stroke-width="0.3" x1="15.007084014347285" x2="10.007500721073583" y1="101.09737516637583" y2="101.16192664675087" /><path d="M 14.007167355692545 101.11028546245083 a86.0,86.0 0 0,1 10.666146001902534,-42.60595125391555" fill="none" id="id34" stroke="none" /><text fill="#e1ed5e" style="font-size:6.75px; font-family:Arial;" text-anchor="middle"><textPath startOffset="22.20632615414155" xlink:href="#id34">October</textPath></text><line stroke="#e1ed5e" stroke-width="0.3" x1="26.266209847984243" x2="21.928928074336255" y1="57.711370442889674" y2="55.22380399835377" /><path d="M 25.398753493254645 57.213857153982495 a86.0,86.0 0 0,1 29.58750427330803,-30.492523968695096" fill="none" id="id35" stroke="none" /><text fill="#e1ed5e" style="font-size:6.75px; font-family:Arial;" text-anchor="middle"><textPath startOffset="21.46611528233685" xlink:href="#id35">November</textPath></text><line stroke="#e1ed5e" stroke-width="0.3" x1="56.762969772571076" x2="54.21961505331055" y1="26.818313649435495" y2="22.513508569990535" /><path d="M 56.25429882871897 25.957352633546506 a86.0,86.0 0 0,1 42.265352541879196,-11.944610805530505" fill="none" id="id36" stroke="none" /><text fill="#e1ed5e" style="font-size:6.75px; font-family:Arial;" text-anchor="middle"><textPath startOffset="22.20632615414155" xlink:href="#id36">December</textPath></text></svg>