<?xml version="1.0" encoding="utf-8" ?>
<svg baseProfile="full" height="200mm" version="1.1" viewBox="0,0,200,200" width="200mm" xmlns="http://www.w3.org/2000/svg" xmlns:ev="http://www.w3.org/2001/xml-events" xmlns:xlink="http://www.w3.org/1999/xlink"><defs /><rect fill="#1a1a1a" height="200" width="200" x="0" y="0" /><rect fill="#1a1a1a" height="200" width="180" x="10" y="0" /><text alignment-baseline="middle" fill="#e1ed5e" style="dominant-baseline: central; font-size:9.0px; font-family:Arial;" text-anchor="middle" x="100.0" y="100.0">2025</text><line stroke="#e1ed5e" stroke-width="0.3" x1="100.0" x2="100.0" y1="15.0" y2="10.0" /><path d="M 100.0 14.0 a86.0,86.0 0 0,1 42.46469731375804,11.215312516191453" fill="none" id="id13" stroke="none" /><text fill="#e1ed5e" style="font-size:6.75px; font-family:Arial;" text-anchor="middle"><textPath startOffset="22.20632615414155" xlink:href="#id13">January</textPath></text><path d="M 101.80526077348638 79.07773832637324 l 1.269210672774363 -14.709652037396083 a35.76430691882132,35.76430691882132 0 0,0 0.6128893051007772,0.058201224511560144 l -1.5222251049653845 14.685625268369344" fill="#ffa80f" stroke="none" /><path d="M 104.307194497241 79.44645832069477 l 3.0024383654073374 -14.327363698684584 a35.638578711488854,35.638578711488854 0 0,0 0.5993344463233083,0.13099129636070486 l -3.248615535884174 14.27355890422801" fill="#ffa70f" stroke="none" /><path d="M 105.36241919743992 79.69619591428918 l 1.8877538249200914 -7.147629159899928 a28.392713785272104,28.392713785272104 0 0,0 0.4714571060757822,0.12886703648586967 l -2.0105088202195844 7.114075582587765" fill="#ff4106" stroke="none" /><path d="M 108.76106565485865 80.91482961587045 l 6.1009632555579 -13.290383593354646 a35.62381785663983,35.62381785663983 0 0,0 0.5550899713993813,0.2606221845159159 l -6.32883143825688 13.183396426198726" fill="#ffa60f" stroke="none" /><line stroke="#e1ed5e" stroke-width="0.3" x1="143.23703022742887" x2="145.7803849466894" y1="26.81831364943548" y2="22.513508569990506" /><path d="M 143.74570117128098 25.957352633546492 a86.0,86.0 0 0,1 28.547481713284135,27.462654790039103" fill="none" id="id14" stroke="none" /><text fill="#e1ed5e" style="font-size:6.75px; font-family:Arial;" text-anchor="middle"><textPath startOffset="19.985693538727396" xlink:href="#id14">February</textPath></text><path d="M 110.99172775467656 82.1063720568725 l 11.488413073455071 -18.702190754852445 a42.94893104406731,42.94893104406731 0 0,0 0.6266061856184075,0.3923807359492849 l -11.808638411445742 18.501665677580217" fill="#f9ff18" stroke="none" /><path d="M 111.60114157652 82.49532879139004 l 4.8628018192945595 -7.337359555344343 a29.80248185332622,29.80248185332622 0 0,0 0.42517541229956,0.287080336326807 l -4.988381926000661 7.252567306718865" fill="#ff5607" stroke="none" /><path d="M 113.34407831869373 83.78471172551755 l 9.290767408469657 -11.289837201303936 a35.621175844309796,35.621175844309796 0 0,0 0.4701019242811623,0.393696842177883 l -9.483726869709937 11.128239201732233" fill="#ffa60f" stroke="none" /><path d="M 114.42810811169701 84.74124197986012 l 5.071625643152514 -5.363607470813331 a28.381711980648305,28.381711980648305 0 0,0 0.35209102599643166,0.33871128804721296 l -5.163199912761364 5.275513096003816" fill="#ff4106" stroke="none" /><line stroke="#e1ed5e" stroke-width="0.3" x1="172.23445277983987" x2="176.4835382374775" y1="55.19839476539836" y2="52.563006222186495" /><path d="M 173.08426987136738 54.67131705675599 a86.0,86.0 0 0,1 12.851231095245387,41.99856678651699" fill="none" id="id15" stroke="none" /><text fill="#e1ed5e" style="font-size:6.75px; font-family:Arial;" text-anchor="middle"><textPath startOffset="22.20632615414155" xlink:href="#id15">March</textPath></text><path d="M 119.04729006885535 91.15688171328212 l 13.239555828177759 -6.14675147115124 a35.5968624085978,35.5968624085978 0 0,0 0.2532423222485259,0.5579858885327483 l -13.343400467389632 5.917943573776428" fill="#ffa60f" stroke="none" /><path d="M 119.47837535516314 92.15188598940014 l 7.292228355803936 -2.9381423493570975 a28.861887487001873,28.861887487001873 0 0,0 0.1817013184938232,0.4624100364565566 l -7.34172322417946 2.8121833080047565" fill="#ff4806" stroke="none" /><path d="M 119.7369772167798 92.82701384747503 l 13.743493590557648 -4.994781527567159 a35.62297707656773,35.62297707656773 0 0,0 0.20448762566490555,0.5781140543545039 l -13.827434297032363 4.757469846786042" fill="#ffa60f" stroke="none" /><path d="M 120.28053869075195 94.5502522615342 l 9.828056876499895 -2.6409767291162933 a31.176711652171868,31.176711652171868 0 0,0 0.1348076084875753,0.5194687069870353 l -9.872060816857772 2.471411596580408" fill="#ff6909" stroke="none" /><path d="M 120.37134235888165 94.90015583598534 l 10.831212982767182 -2.7115296256008405 a32.16546316050415,32.16546316050415 0 0,0 0.1298369638299862,0.5382580373864987 l -10.876282746857989 2.524686356554936" fill="#ff770a" stroke="none" /><path d="M 120.45610955862082 95.25157060432595 l 7.154237735244027 -1.6606966573151112 a28.344455797403043,28.344455797403043 0 0,0 0.10623179850610744,0.4762163227404705 l -7.1817639207521715 1.5373021650246768" fill="#ff4106" stroke="none" /><path d="M 120.6074358757038 95.95851677861258 l 20.06136929655543 -3.934389892032926 a41.443531052029826,41.443531052029826 0 0,0 0.13126602221643008,0.7012283395308198 l -20.126121042681717 3.5884834750395433" fill="#fff316" stroke="none" /><path d="M 120.67395015179393 96.31383870115 l 7.219557685803668 -1.2872457339225643 a28.333417672419092,28.333417672419092 0 0,0 0.08147630238130497,0.48087774876349326 l -7.240645849705196 1.162782196843233" fill="#ff4006" stroke="none" /><path d="M 120.87857604477298 97.74499172005257 l 11.646343171188073 -1.2578731531221081 a32.71407504374223,32.71407504374223 0 0,0 0.05564956148617824,0.5603834896954981 l -11.66626985835648 1.057214132722175" fill="#ff7f0b" stroke="none" /><path d="M 120.94382443527127 98.46500227214037 l 23.31210206167902 -1.7085716033813616 a44.37462982504793,44.37462982504793 0 0,0 0.04927572104371212,0.7622735945958553 l -23.338058373727147 1.307038944532471" fill="#e7ff1a" stroke="none" /><path d="M 120.96714384426684 98.82574320788733 l 8.755347315187722 -0.49033984449798057 a29.769067212233416,29.769067212233416 0 0,0 0.0242495869645638,0.5118704541205193 l -8.762490510385781 0.3395582837544615" fill="#ff5507" stroke="none" /><line stroke="#e1ed5e" stroke-width="0.3" x1="184.98032266829074" x2="189.97916517819016" y1="98.17113171792111" y2="98.06355123074" /><path d="M 185.9800911702706 98.14961562048488 a86.0,86.0 0 0,1 -9.607161424134198,41.387399972396054" fill="none" id="id16" stroke="none" /><text fill="#e1ed5e" style="font-size:6.75px; font-family:Arial;" text-anchor="middle"><textPath startOffset="21.466115282336823" xlink:href="#id16">April</textPath></text><path d="M 120.99513854157772 99.54816195383933 l 7.634901844935461 -0.16431132975914517 a28.636669718855604,28.636669718855604 0 0,0 0.006364149226201415,0.49291037110781827 l -7.636599001279379 0.032864700590864195" fill="#ff4506" stroke="none" /><path d="M 120.99980553446 99.90962569577887 l 17.532489806698674 -0.07545244002114006 a38.532652163683,38.532652163683 0 0,0 -0.002854540543508534,0.6632946922307469 l -17.531190968865662 -0.22635173041329149" fill="#ffcd13" stroke="none" /><path d="M 120.9904718944345 100.63252640178507 l 11.83329105032125 0.35658412288099844 a32.83866248012434,32.83866248012434 0 0,0 -0.02188910641623613,0.5648605745451609 l -11.825399811053812 -0.5602219444401655" fill="#ff800b" stroke="none" /><path d="M 120.92983693683757 101.71520430193887 l 7.475699278790396 0.6126350435351272 a28.500760055052723,28.500760055052723 0 0,0 -0.04427851443839522,0.48860971715859275 l -7.464046168074925 -0.7412261492422905" fill="#ff4306" stroke="none" /><path d="M 120.89721153311464 102.0752229133903 l 5.298702762641636 0.5261940985214068 a26.324765834864934,26.324765834864934 0 0,0 -0.04866032491586653,0.4505341745986684 l -5.288860136224717 -0.6173245950048666" fill="#ff2303" stroke="none" /><path d="M 120.8583938346157 102.4346265915055 l 14.55132592261922 1.6984550830600853 a35.65011384854953,35.65011384854953 0 0,0 -0.0763905389696556,0.6089077569098946 l -14.519933874402716 -1.948680594257375" fill="#ffa70f" stroke="none" /><path d="M 120.81339534386255 102.79330883721812 l 14.531175963799027 1.9501893643134232 a35.66145673006512,35.66145673006512 0 0,0 -0.08688820360591383,0.6076958936489766 l -14.495453709176513 -2.2000307299428092" fill="#ffa70f" stroke="none" /><path d="M 120.70491114924044 103.5080841355445 l 25.919890184995452 4.39167088898007 a47.28930353583637,47.28930353583637 0 0,0 -0.14288926422146667,0.8013988771090229 l -25.840454478434797 -4.837188516822311" fill="#c4ff1e" stroke="none" /><path d="M 120.5718875245553 104.21870165774334 l 5.714833833375579 1.1719478311269074 a26.833762719032826,26.833762719032826 0 0,0 -0.09668583098932479,0.4516840140116052 l -5.693813963661811 -1.2701456645546816" fill="#ff2a04" stroke="none" /><path d="M 120.13307415673323 105.97154293290107 l 5.605300245638146 1.6625524153962745 a26.846663268710714,26.846663268710714 0 0,0 -0.1352218200653614,0.4419127318557485 l -5.575851653066652 -1.7587921198040803" fill="#ff2b04" stroke="none" /><path d="M 120.02730092923936 106.31721596034902 l 29.712807979117986 9.372317590655927 a52.1559191009358,52.1559191009358 0 0,0 -0.2774390628068698,0.8538696361700404 l -29.54707666529487 -9.882386126803762" fill="#8cff24" stroke="none" /><path d="M 119.67450827220406 107.3425965602758 l 12.92754272392537 4.8246049875420365 a34.79848448796937,34.79848448796937 0 0,0 -0.21426871932243138,0.5593880130028986 l -12.842579725009431 -5.0464165673780785" fill="#ff9b0e" stroke="none" /><path d="M 119.26925614724726 108.34839909993367 l 24.459724433204986 10.597167834730625 a47.65667056227717,47.65667056227717 0 0,0 -0.33259571156792483,0.7499155268821167 l -24.273687636905787 -11.01663169810543" fill="#bfff1e" stroke="none" /><path d="M 118.97047184881838 109.00673069616215 l 18.56981808669359 8.816509779854956 a41.55648288183488,41.55648288183488 0 0,0 -0.31235978521161945,0.643553675448223 l -18.415305044867257 -9.134852411268454" fill="#fff417" stroke="none" /><path d="M 118.81262510543309 109.33194174019688 l 2.672378514983514 1.3256247052080874 a23.983100364788875,23.983100364788875 0 0,0 -0.1866357221077721,0.3682499858541785 l -2.6491641230894727 -1.3714289027649602" fill="#ff0000" stroke="none" /><line stroke="#e1ed5e" stroke-width="0.3" x1="174.80103733775053" x2="179.2010983576182" y1="140.37084112569926" y2="142.7455964860345" /><path d="M 175.68104954172406 140.8457921977663 a86.0,86.0 0 0,1 -30.038265399797805,32.042727171017184" fill="none" id="id17" stroke="none" /><text fill="#e1ed5e" style="font-size:6.75px; font-family:Arial;" text-anchor="middle"><textPath startOffset="22.206326154141568" xlink:href="#id17">May</textPath></text><path d="M 117.94076556474637 110.91462005526583 l 22.26369367426667 13.544558987992172 a47.0600678088293,47.0600678088293 0 0,0 -0.4269812846288282,0.6884297846224455 l -22.027247749969877 -13.92578510397989" fill="#c6ff1e" stroke="none" /><path d="M 117.55443506779139 111.5257021239791 l 12.251007438500325 8.043634666083975 a35.65562151188472,35.65562151188472 0 0,0 -0.3412699618352152,0.510152288827176 l -12.110734371254388 -8.253323869116956" fill="#ffa70f" stroke="none" /><path d="M 116.71984013943494 112.70617746262583 l 13.9419352355014 10.59511943878572 a38.51097124756507,38.51097124756507 0 0,0 -0.40563639534630336,0.5243397213214598 l -13.757492022937027 -10.833537154220432" fill="#ffcd13" stroke="none" /><path d="M 116.27256486870786 113.27417163493432 l 10.181151388478828 8.305165907299857 a34.13893543415524,34.13893543415524 0 0,0 -0.37537222624392846,0.4521600278633379 l -10.036683162341356 -8.479187192276965" fill="#ff920d" stroke="none" /><path d="M 116.0416608686014 113.55231037782055 l 11.180341430767324 9.445372174419704 a35.63608861758613,35.63608861758613 0 0,0 -0.3999005339206516,0.4651746660185507 l -11.016098387275893 -9.636423939599783" fill="#ffa70f" stroke="none" /><path d="M 115.56566222782051 114.09645910891815 l 10.378866258890119 9.399231569722968 a35.00237190340282,35.00237190340282 0 0,0 -0.4082836536384828,0.44311126902365017 l -10.215536197255913 -9.576494093547954" fill="#ff9e0e" stroke="none" /><path d="M 115.07121518719521 114.62390073753431 l 22.078093455922822 21.422814495259555 a51.763276671166956,51.763276671166956 0 0,0 -0.6259890184993779,0.6341235707793618 l -21.70606381236791 -21.799678560019583" fill="#90ff24" stroke="none" /><path d="M 114.81725581225074 114.88116024355365 l 10.326818507175215 10.371356407595604 a35.6358537234256,35.6358537234256 0 0,0 -0.4384059288845826,0.4290724736302115 l -10.146762625914839 -10.547578984148387" fill="#ffa70f" stroke="none" /><path d="M 114.29624159901734 115.38237550388516 l 11.897187807775381 12.801057468980119 a38.475987813500296,38.475987813500296 0 0,0 -0.4890123086728896,0.44670114960275503 l -11.675075949635628 -13.003951385169456" fill="#ffcc13" stroke="none" /><path d="M 114.0293411484842 115.62618273729858 l 5.8822248165735065 6.551748860678416 a29.804883981411347,29.804883981411347 0 0,0 -0.38470674875683303,0.3394589766912096 l -5.768575714910085 -6.652030979141914" fill="#ff5607" stroke="none" /><path d="M 113.75828350139079 115.86535959552629 l 11.51754924603562 13.281457707210787 a38.57984810694576,38.57984810694576 0 0,0 -0.5054594344111633,0.43076349571343797 l -11.287224335047409 -13.477745593147173" fill="#ffce13" stroke="none" /><path d="M 113.20401910651253 116.32954008644616 l 4.689366725511053 5.799385876873719 a28.45808533306053,28.45808533306053 0 0,0 -0.38356418214919186,0.30472658398825964 l -4.58884505064451 -5.879246374867105" fill="#ff4206" stroke="none" /><path d="M 112.63410532772338 116.77436683061366 l 10.554920169823612 14.013821968695632 a38.54404588347983,38.54404588347983 0 0,0 -0.5334037635531289,0.39459935239362015 l -10.312131435851919 -14.193431269829022" fill="#ffcd13" stroke="none" /><path d="M 112.34349029814194 116.9893568818739 l 8.592898575842046 11.827110244231484 a35.61911223925426,35.61911223925426 0 0,0 -0.4991300637283738,0.3561160477450586 l -8.388041184264788 -11.973270553820763" fill="#ffa60f" stroke="none" /><path d="M 111.7513745106137 117.40417183066458 l 8.188928022772542 12.128071511001023 a35.633819075624245,35.633819075624245 0 0,0 -0.5113033937146709,0.3388640088321947 l -7.978949930317907 -12.267233540924536" fill="#ffa70f" stroke="none" /><path d="M 111.1453310114006 117.79835938074945 l 16.330022374113764 26.077969924163906 a51.768980257796215,51.768980257796215 0 0,0 -0.7593296532235669,0.4664422916813832 l -15.878713520957886 -26.355200682673665" fill="#90ff24" stroke="none" /><line stroke="#e1ed5e" stroke-width="0.3" x1="143.8653032363475" x2="146.44561519142675" y1="172.8068346515853" y2="177.08958963109032" /><path d="M 144.38136562736335 173.6633856474863 a86.0,86.0 0 0,1 -40.68145358897372,12.25698825130547" fill="none" id="id18" stroke="none" /><text fill="#e1ed5e" style="font-size:6.75px; font-family:Arial;" text-anchor="middle"><textPath startOffset="21.466115282336833" xlink:href="#id18">June</textPath></text><path d="M 110.21172684928248 118.3499491758327 l 8.519834299218749 15.309705075803617 a38.52069193822639,38.52069193822639 0 0,0 -0.5821708996299193,0.31744599240914867 l -8.255040587720181 -15.454091719972537" fill="#ffcd13" stroke="none" /><path d="M 109.89434966115114 118.52300852407294 l 4.459797610047543 8.349095390362395 a30.465579145512248,30.465579145512248 0 0,0 -0.4646858171479355,0.2431016571237717 l -4.315420890373112 -8.424626466430883" fill="#ff5f08" stroke="none" /><path d="M 109.57404056367764 118.69057910512821 l 6.667769305463533 13.016914732042926 a35.625293728748076,35.625293728748076 0 0,0 -0.5481987836237524,0.2748782505290167 l -6.442716614157021 -13.129760823481245" fill="#ffa60f" stroke="none" /><path d="M 108.59647513512805 119.15986991738527 l 13.133671384483963 29.272397268517178 a53.08374301545106,53.08374301545106 0 0,0 -0.8369014201998435,0.36687298834999377 l -12.627849289626367 -29.494134810161626" fill="#81ff25" stroke="none" /><path d="M 107.93186726928326 119.44442032107085 l 5.302153070408757 12.997859067427418 a35.03770520842884,35.03770520842884 0 0,0 -0.5604012725413989,0.2229952317084014 l -5.077630721825492 -13.087201143541888" fill="#ff9e0e" stroke="none" /><path d="M 107.2578585660854 119.70592522655815 l 6.054268384322257 16.438038713024643 a38.517513590698336,38.517513590698336 0 0,0 -0.6241312594329995,0.22379126410608852 l -5.770417564259523 -16.539817518170693" fill="#ffcd13" stroke="none" /><path d="M 106.2309692047433 120.05430185196036 l 9.13311730838753 29.394831740195176 a51.78100006177762,51.78100006177762 0 0,0 -0.85346190332821,0.2571410704180419 l -8.625780430619074 -29.547688179718946" fill="#90ff24" stroke="none" /><path d="M 105.88484417918355 120.15858648285463 l 2.026422218045663 6.941527471152007 a28.23126480213158,28.23126480213158 0 0,0 -0.46765605284033673,0.13216427182273102 l -1.9066349971007206 -6.975380536313256" fill="#ff3f05" stroke="none" /><path d="M 105.53697534728816 120.25689768951611 l 1.9110305571629118 6.991461592283921 a28.24793577419058,28.24793577419058 0 0,0 -0.4701392154250767,0.12416803982259773 l -1.7904008989263376 -7.0233209814101025" fill="#ff3f05" stroke="none" /><path d="M 105.18746579009965 120.34920634021253 l 3.6147078704826954 14.179647498866595 a35.633130771678466,35.633130771678466 0 0,0 -0.595661595795873,0.14639912787200177 l -3.3700929899436116 -14.239767885052625" fill="#ffa70f" stroke="none" /><path d="M 103.06178313531738 120.77559828337769 l 1.9577372036236242 13.284141916436392 a34.42762679755713,34.42762679755713 0 0,0 -0.5870261347378719,0.08135647328034724 l -1.7287824776989218 -13.315872955209342" fill="#ff960d" stroke="none" /><path d="M 102.34483914955558 120.86867818915974 l 1.314189254315195 11.696065648321115 a32.76966630988299,32.76966630988299 0 0,0 -0.5610906583402614,0.05815934089825696 l -1.1126659993693309 -11.71695435767513" fill="#ff7f0b" stroke="none" /><path d="M 101.62511606390274 120.93702456842531 l 1.1318126081751059 14.581597530522005 a35.625456790204865,35.625456790204865 0 0,0 -0.6118031610861425,0.04219352798742595 l -0.880646686310033 -14.598919403025718" fill="#ffa60f" stroke="none" /><path d="M 101.26447882468166 120.96189622390904 l 1.9864080689551387 32.92967741888117 a53.98953579436944,53.98953579436944 0 0,0 -0.928136504884995,0.04797405574961673 l -1.4192834956566642 -32.95899128139299" fill="#77ff26" stroke="none" /><line stroke="#e1ed5e" stroke-width="0.3" x1="102.19456741930631" x2="102.32365962044197" y1="184.97166512339345" y2="189.96999836594603" /><path d="M 102.22038585953345 185.97133177190398 a86.0,86.0 0 0,1 -42.740103519485714,-10.115201625700543" fill="none" id="id19" stroke="none" /><text fill="#e1ed5e" style="font-size:6.75px; font-family:Arial;" text-anchor="middle"><textPath startOffset="22.20632615414155" xlink:href="#id19">July</textPath></text><path d="M 100.54218724476979 120.99299961872073 l 0.44893856990606207 17.38249528697145 a38.38829169990928,38.38829169990928 0 0,0 -0.6607179074526635,0.01137485796747296 l -0.1496609725607307 -17.387647622218083" fill="#ffcb12" stroke="none" /><path d="M 100.18074693466247 120.99922214144158 l 0.06387816523650915 7.421380530154824 a28.421655434830903,28.421655434830903 0 0,0 -0.48925019979792406,0.0 l 0.06387816523650404 -7.421380530154824" fill="#ff4206" stroke="none" /><path d="M 99.81925306533755 120.99922214144158 l -0.06314337254141451 7.3360121389236825 a28.336283881361975,28.336283881361975 0 0,0 -0.48770834444613653,-0.008396341441712227 l 0.18941140688021899 -7.333838320202811" fill="#ff4006" stroke="none" /><path d="M 99.09653310690486 120.98055641714683 l -0.980736803582651 22.774939508238646 a43.79604602298019,43.79604602298019 0 0,0 -0.7528997700289436,-0.03891631818287189 l 1.3726246420250836 -22.75468338329357" fill="#eeff19" stroke="none" /><path d="M 98.37488393609728 120.93702456842531 l -0.5696850857182356 7.339482330452294 a28.36155839316046,28.36155839316046 0 0,0 -0.4864084006191338,-0.04196936350522908 l 0.6959378040789111 -7.328588714668402" fill="#ff4106" stroke="none" /><path d="M 98.01472825383883 120.90594882070398 l -1.3952657251471288 14.692877132620088 a35.75897709456996,35.75897709456996 0 0,0 -0.6122744067587897,-0.06346474569955278 l 1.647972728511512 -14.666683018464774" fill="#ffa80f" stroke="none" /><path d="M 97.65516085044442 120.86867818915974 l -0.8210607398631717 7.3073039390379595 a28.353287128626512,28.353287128626512 0 0,0 -0.4845341531816224,-0.05867033814632592 l 0.9467223160961835 -7.292088072166285" fill="#ff4106" stroke="none" /><path d="M 96.22490169976321 120.6578951692458 l -5.5383213353104965 30.306511899641194 a51.808402534637345,51.808402534637345 0 0,0 -0.8758886065286732,-0.16786613607366904 l 6.059177556410865 -30.206688565219057" fill="#90ff24" stroke="none" /><path d="M 95.86986931433489 120.58985236759428 l -1.4534823382832052 7.246014482792955 a28.390354307646316,28.390354307646316 0 0,0 -0.47832141748048845,-0.1002369036650692 l 1.5779952171930804 -7.219921598401344" fill="#ff4106" stroke="none" /><path d="M 94.81253420990036 120.34920634021253 l -4.947308839384246 19.407127193691558 a41.027791956787745,41.027791956787745 0 0,0 -0.6828383523447251,-0.18034381507544964 l 5.280637634540461 -19.31909202931253" fill="#ffed16" stroke="none" /><path d="M 94.46302465271185 120.25689768951611 l -5.902592897134262 21.594501134752978 a43.38667197615911,43.38667197615911 0 0,0 -0.7187081381035596,-0.20311409880961723 l 6.273432203342435 -21.48969824260484" fill="#f3ff19" stroke="none" /><path d="M 93.08242187328487 119.8279376855182 l -7.878076411490583 22.581025513182297 a44.91582741977108,44.91582741977108 0 0,0 -0.7278084518609083,-0.26096621665291225 l 8.265604423981218 -22.442071755489426" fill="#e0ff1b" stroke="none" /><path d="M 92.06813273071674 119.44442032107085 l -11.638276789460043 28.53042518545233 a51.81289742771324,51.81289742771324 0 0,0 -0.8229085742034709,-0.3439758507569135 l 12.127656823160978 -28.325864291675444" fill="#90ff24" stroke="none" /><path d="M 90.42595943632237 118.69057910512821 l -7.998481607404026 15.614750345978557 a38.544119709783615,38.544119709783615 0 0,0 -0.5879062951024525,-0.307564787430135 l 8.266078805032974 -15.474756139603704" fill="#ffcd13" stroke="none" /><line stroke="#e1ed5e" stroke-width="0.3" x1="58.666819895761336" x2="56.23545636021788" y1="174.27360380694188" y2="178.64263932499728" /><path d="M 58.180547188652646 175.14741091055294 a86.0,86.0 0 0,1 -31.652253787137756,-30.449443065178592" fill="none" id="id20" stroke="none" /><text fill="#e1ed5e" style="font-size:6.75px; font-family:Arial;" text-anchor="middle"><textPath startOffset="22.20632615414155" xlink:href="#id20">August</textPath></text><path d="M 89.7882731507175 118.34994917583269 l -6.413172786599046 11.52414243220719 a34.18842841238382,34.18842841238382 0 0,0 -0.5117702204028042,-0.29059648752701567 l 6.6105917739230575 -11.412042778885542" fill="#ff930d" stroke="none" /><path d="M 88.8546689885994 117.79835938074946 l -9.55669032293498 15.261404859500201 a39.0066878746219,39.0066878746219 0 0,0 -0.566002268441567,-0.36124942718987774 l 9.817974393423471 -15.094641003486519" fill="#ffd313" stroke="none" /><path d="M 87.95078237400918 117.19931262002967 l -8.387728694167807 11.972824498729436 a35.61856761534254,35.61856761534254 0 0,0 -0.49912243192199757,-0.35611060265384903 l 8.592578453938692 -11.826669634231369" fill="#ffa60f" stroke="none" /><path d="M 86.79598089348748 116.32954008644616 l -12.442134872280015 15.387310372616469 a40.78828038722003,40.78828038722003 0 0,0 -0.5421536886365675,-0.44615557611268397 l 12.70515868946127 -15.170859677646604" fill="#ffea16" stroke="none" /><path d="M 84.9287848128048 114.62390073753433 l -6.310468215203428 6.123173190766089 a29.792909587799098,29.792909587799098 0 0,0 -0.35395884559594853,-0.3711244344985354 l 6.414933612178334 -6.013641639685053" fill="#ff5507" stroke="none" /><path d="M 84.43433777217949 114.09645910891817 l -10.87665356916557 9.850034006621215 a35.67394843916376,35.67394843916376 0 0,0 -0.40828180025973737,-0.45870893075746655 l 11.044594219073646 -9.661350906122884" fill="#ffa70f" stroke="none" /><path d="M 84.19399662182784 113.82643327865904 l -9.845208848445417 8.61217855017539 a34.08043411548749,34.08043411548749 0 0,0 -0.3824433131616285,-0.4448679743605608 l 9.991994671177824 -8.4414334766533" fill="#ff910d" stroke="none" /><path d="M 83.28015986056508 112.70617746262583 l -11.685696630155727 8.880499688927383 a35.67715164659248,35.67715164659248 0 0,0 -0.3673705752374532,-0.49215292037195835 l 11.836828472088266 -8.678033889046116" fill="#ffa70f" stroke="none" /><path d="M 82.6465618267979 111.8261652097733 l -12.070760280662508 8.226081993776084 a35.60724747245513,35.60724747245513 0 0,0 -0.34080696032548097,-0.5094601643909931 l 12.21057034639872 -8.01708491517927" fill="#ffa60f" stroke="none" /><line stroke="#e1ed5e" stroke-width="0.3" x1="26.63291911575756" x2="22.317208475507996" y1="142.92168965132927" y2="145.44649492493687" /><path d="M 25.769776987707644 143.4266507060508 a86.0,86.0 0 0,1 -11.730757126820373,-40.83630448921669" fill="none" id="id21" stroke="none" /><text fill="#e1ed5e" style="font-size:6.75px; font-family:Arial;" text-anchor="middle"><textPath startOffset="21.46611528233685" xlink:href="#id21">September</textPath></text><path d="M 81.87401531095188 110.60418214915194 l -10.109966729015888 5.914598878654367 a32.712980285016606,32.712980285016606 0 0,0 -0.2801602001984226,-0.48848292381950825 l 10.210278925366687 -5.739696108976552" fill="#ff7f0b" stroke="none" /><path d="M 81.69416730710424 110.29060199501025 l -11.29563758812906 6.349829185559222 a33.95807698727453,33.95807698727453 0 0,0 -0.282051891249631,-0.5120061101279794 l 11.403265888830207 -6.15445255703342" fill="#ff900d" stroke="none" /><path d="M 81.51974371655577 109.97397251340807 l -6.503322931149727 3.5099060947121683 a28.390037208330924,28.390037208330924 0 0,0 -0.22840121798807939,-0.43204902918708354 l 6.562776657362693 -3.3974420504389586" fill="#ff4106" stroke="none" /><path d="M 80.73074385275274 108.34839909993369 l -13.40089594167004 5.805933906469213 a35.60454999531849,35.60454999531849 0 0,0 -0.23880313961571784,-0.5644600807444939 l 13.498850062478063 -5.57439930005856" fill="#ffa60f" stroke="none" /><path d="M 80.58989483394504 108.01547362559985 l -12.316496050928302 5.086141904510121 a34.32534856749895,34.32534856749895 0 0,0 -0.22082213600823938,-0.5480624320808787 l 12.402220801193929 -4.8733801045864364" fill="#ff950d" stroke="none" /><path d="M 80.32549172779594 107.34259656027581 l -11.003237730301704 4.106447510281764 a32.74453710046651,32.74453710046651 0 0,0 -0.1925312341200928,-0.5297632674237346 l 11.072293225427021 -3.916436445851912" fill="#ff7f0b" stroke="none" /><path d="M 80.0844068197444 106.66101706037122 l -33.22160019033909 11.111376077920092 a56.03052094319628,56.03052094319628 0 0,0 -0.2980496842357788,-0.9173026064327431 l 33.40794212559112 -10.537874571509544" fill="#61ff29" stroke="none" /><path d="M 79.86692584326677 105.97154293290107 l -8.406290317376717 2.4933362459134183 a29.76826337054306,29.76826337054306 0 0,0 -0.14148056530923234,-0.4925124083478831 l 8.447963519572053 -2.348266362060939" fill="#ff5507" stroke="none" /><path d="M 79.76711848015287 105.62410040840567 l -12.600769261712216 3.5026148639038137 a34.078520438939236,34.078520438939236 0 0,0 -0.1522367408477634,-0.5665295461522095 l 12.659194078901754 -3.2851943845760654" fill="#ff910d" stroke="none" /><path d="M 79.67330655649465 105.27499134158121 l -10.662090445590888 2.766924927557163 a32.01526423762488,32.01526423762488 0 0,0 -0.1338370461865478,-0.5346124705938728 l 10.708138806072494 -2.582984617565898" fill="#ff750a" stroke="none" /><path d="M 79.29508885075956 103.50808413554451 l -14.440058989520846 2.446614790680873 a35.645860423847424,35.645860423847424 0 0,0 -0.09729324684653481,-0.6058451409870387 l 14.480033990728673 -2.1976904200006206" fill="#ffa70f" stroke="none" /><path d="M 79.23777060512086 103.15116336523772 l -15.228180256766155 2.3112394546701913 a36.40257451692368,36.40257451692368 0 0,0 -0.0886939176474938,-0.6203250534500961 l 15.265708225430247 -2.0487689292396944" fill="#ffb110" stroke="none" /><path d="M 79.18660465613746 102.79330883721812 l -5.7900876315321534 0.7770718175588472 a26.841999263134653,26.841999263134653 0 0,0 -0.05751664074467972,-0.45846421786270763 l 5.802605781523681 -0.677289845408731" fill="#ff2b04" stroke="none" /><path d="M 79.1416061653843 102.43462659150553 l -14.527275643730375 1.6956478943100874 a35.62590029401267,35.62590029401267 0 0,0 -0.06585311696983671,-0.609718076277818 l 14.554311062201263 -1.4453334961474873" fill="#ffa60f" stroke="none" /><path d="M 79.0235259727143 100.99374915477108 l -15.290002804983375 0.7243556445251523 a36.30715116787428,36.30715116787428 0 0,0 -0.024201079933298647,-0.6245223379970728 l 15.300206017767875 -0.4610560595140827" fill="#ffb010" stroke="none" /><path d="M 79.0095281055655 100.63252640178507 l -14.916912265664351 0.4495058943217972 a35.92368342905188,35.92368342905188 0 0,0 -0.013305340849276282,-0.6182469069328922 l 14.922439669198635 -0.19266917159877622" fill="#ffaa0f" stroke="none" /><line stroke="#e1ed5e" stroke-width="0.3" x1="15.007084014347285" x2="10.007500721073583" y1="101.09737516637583" y2="101.16192664675087" /><path d="M 14.007167355692545 101.11028546245083 a86.0,86.0 0 0,1 10.666146001902534,-42.60595125391555" fill="none" id="id22" stroke="none" /><text fill="#e1ed5e" style="font-size:6.75px; font-family:Arial;" text-anchor="middle"><textPath startOffset="22.20632615414155" xlink:href="#id22">October</textPath></text><path d="M 79.08570108090925 98.10471618934814 l -14.577363026272913 -1.3210215772746112 a35.6370970758335,35.6370970758335 0 0,0 0.060621882851915054,-0.6104540872780431 l 14.55246401773877 1.5717511952570846" fill="#ffa70f" stroke="none" /><path d="M 79.16333360222342 97.38593545837743 l -15.653675722779171 -1.9638323075202373 a36.77638111120501,36.77638111120501 0 0,0 0.08420740685717347,-0.6274429903516416 l 15.617552316864165 2.2329936399365384" fill="#ffb610" stroke="none" /><path d="M 79.21141760316559 97.0276538004421 l -14.488911843279995 -2.0716209133943004 a35.636262487778495,35.636262487778495 0 0,0 0.09205034380057399,-0.6064967544838299 l 14.451105606040118 2.3207167802702227" fill="#ffa70f" stroke="none" /><path d="M 79.3925641242962 95.95851677861259 l -7.232563521875107 -1.4184338263907659 a28.3703412144763,28.3703412144763 0 0,0 0.09810829305367223,-0.47841087938079996 l 7.207075932906441 1.5427203619349683" fill="#ff4106" stroke="none" /><path d="M 79.54389044137918 95.25157060432595 l -11.418323372602927 -2.6505089932376795 a32.72191565251022,32.72191565251022 0 0,0 0.1320831028554812,-0.5475697337470303 l 11.37100746948663 2.8466639586441067" fill="#ff7f0b" stroke="none" /><path d="M 80.14247586403 93.16781622104843 l -7.552889884298471 -2.5986488244140173 a28.987435215196836,28.987435215196836 0 0,0 0.16639742906748636,-0.4704279392925677 l 7.507039374421175 2.728274390133196" fill="#ff4a06" stroke="none" /><path d="M 80.2630227832202 92.82701384747504 l -5.524248167113086 -2.0076709402149593 a26.87775981272082,26.87775981272082 0 0,0 0.16177264341348882,-0.4334702560500535 l 5.48887093519797 2.1024643332943542" fill="#ff2b04" stroke="none" /><path d="M 80.803312248108 91.48605970444005 l -57.59006325567602 -25.54182088667983 a84.0,84.0 0 0,0 0.5975907321465934,-1.3167119646317162 l 57.141870206566075 26.529354860153617" fill="#4dd2ff" stroke="none" /><path d="M 81.26839172434947 90.50648371742162 l -8.081774763013318 -4.095988938896034 a30.06047508178449,30.06047508178449 0 0,0 0.23789368539609676,-0.45953488014601396 l 8.010071644457108 4.234496541302383" fill="#ff5908" stroke="none" /><line stroke="#e1ed5e" stroke-width="0.3" x1="26.266209847984243" x2="21.928928074336255" y1="57.711370442889674" y2="55.22380399835377" /><path d="M 25.398753493254645 57.213857153982495 a86.0,86.0 0 0,1 29.58750427330803,-30.492523968695096" fill="none" id="id23" stroke="none" /><text fill="#e1ed5e" style="font-size:6.75px; font-family:Arial;" text-anchor="middle"><textPath startOffset="21.46611528233685" xlink:href="#id23">November</textPath></text><path d="M 82.34701348167596 88.62581576622439 l -13.03225248783134 -8.396949752598974 a36.50317290280471,36.50317290280471 0 0,0 0.34487392019181173,-0.5252666408917853 l 12.885781932281608 8.620034457468426" fill="#ffb210" stroke="none" /><path d="M 82.7489923806493 88.02491185347247 l -12.02093542066024 -8.344542211241533 a35.63332747883665,35.63332747883665 0 0,0 0.35410598853470937,-0.5008578084167498 l 11.875516812321653 8.550226519990069" fill="#ffa70f" stroke="none" /><path d="M 86.93701828274178 83.55741782278169 l -13.930876159356897 -17.535014670368398 a43.39522382244422,43.39522382244422 0 0,0 0.5888679071888929,-0.4596207420288983 l 13.626975697008579 17.772213801620516" fill="#f3ff19" stroke="none" /><path d="M 88.70189139769569 82.29822771554957 l -8.479136297928173 -13.285032495096537 a36.76032489368839,36.76032489368839 0 0,0 0.5363171190476197,-0.3358417307457939 l 8.24920002650831 13.42901856716526" fill="#ffb610" stroke="none" /><path d="M 89.00827224532344 82.1063720568725 l -6.576717691790324 -10.70635500536405 a33.56500111812139,33.56500111812139 0 0,0 0.49490464731511435,-0.29817451248146576 l 6.39145097825756 10.817976127304137" fill="#ff8a0c" stroke="none" /><line stroke="#e1ed5e" stroke-width="0.3" x1="56.762969772571076" x2="54.21961505331055" y1="26.818313649435495" y2="22.513508569990535" /><path d="M 56.25429882871897 25.957352633546506 a86.0,86.0 0 0,1 42.265352541879196,-11.944610805530505" fill="none" id="id24" stroke="none" /><text fill="#e1ed5e" style="font-size:6.75px; font-family:Arial;" text-anchor="middle"><textPath startOffset="22.20632615414155" xlink:href="#id24">December</textPath></text><path d="M 90.58718382345135 81.22770947309562 l -3.063712144160041 -6.11006242789132 a27.83514410784461,27.83514410784461 0 0,0 0.43015733570957226,-0.21107633647988833 l 2.9580835414400424 6.161893924506038" fill="#ff3905" stroke="none" /><path d="M 91.23893434514133 80.91482961587045 l -6.996570842343543 -15.241381801163243 a37.77056119397207,37.77056119397207 0 0,0 0.5932098322531871,-0.26615596008043835 l 6.733178891623581 15.359558091760212" fill="#ffc312" stroke="none" /><path d="M 92.23578459929587 80.48803036053334 l -5.413344894890917 -13.60408177592475 a35.64156220890003,35.64156220890003 0 0,0 0.5719907852433633,-0.2219235382644034 l 5.178370944647878 13.695248018079704" fill="#ffa70f" stroke="none" /><path d="M 92.57280143429618 80.3572730644239 l -5.070250346964467 -13.409301256643513 a35.33585709932666,35.33585709932666 0 0,0 0.5707879648603061,-0.21022602453583986 l 4.838680056331591 13.494590548985675" fill="#ffa30f" stroke="none" /><path d="M 93.25333710446033 80.11325718540243 l -7.505257027920565 -22.12280627958784 a44.36123799671846,44.36123799671846 0 0,0 0.7252369062317228,-0.23909920552849173 l 7.123337299446433 22.24871920937557" fill="#e7ff1a" stroke="none" /><path d="M 94.28887869178378 79.79150937346287 l -6.633323905778513 -23.471654118055806 a45.39097236841161,45.39097236841161 0 0,0 0.7537108511929912,-0.20601764722339658 l 6.228315165361799 23.582358306105498" fill="#dbff1b" stroke="none" /><path d="M 94.63758080256005 79.69619591428918 l -3.699985577625069 -14.009308023497962 a35.489672341770806,35.489672341770806 0 0,0 0.5919865126097207,-0.15091054319375705 l 3.458290176330349 14.070921562860581" fill="#ffa50f" stroke="none" /><path d="M 95.692805502759 79.44645832069477 l -3.948867342503178 -18.84363698044651 a40.25295322644138,40.25295322644138 0 0,0 0.6793808924570968,-0.13627741574328864 l 3.623920040578945 18.908818352267012" fill="#ffe315" stroke="none" /><path d="M 97.11714578562143 79.19881850522333 l -0.8553067784226002 -6.171450308844834 a27.230437271954244,27.230437271954244 0 0,0 0.4648433665850603,-0.060350010076692454 l 0.7489486833296821 6.185258642085663" fill="#ff3004" stroke="none" /><path d="M 98.91598698831166 79.02799685794201 l -0.7547891672456026 -14.602629872875736 a35.62212385022074,35.62212385022074 0 0,0 0.6126312665842918,-0.026381191043224766 l 0.5033170682719867 14.613458790443152" fill="#ffa60f" stroke="none" /></svg>